<?xml version="1.0" encoding="UTF-8" standalone="no"?>
<!-- Created with Inkscape (http://www.inkscape.org/) -->

<svg
   xmlns:dc="http://purl.org/dc/elements/1.1/"
   xmlns:cc="http://creativecommons.org/ns#"
   xmlns:rdf="http://www.w3.org/1999/02/22-rdf-syntax-ns#"
   xmlns:svg="http://www.w3.org/2000/svg"
   xmlns="http://www.w3.org/2000/svg"
   xmlns:sodipodi="http://sodipodi.sourceforge.net/DTD/sodipodi-0.dtd"
   xmlns:inkscape="http://www.inkscape.org/namespaces/inkscape"
   width="44.807873mm"
   height="5.3289504mm"
   viewBox="0 0 158.76805 18.882108"
   id="svg2"
   version="1.1"
   inkscape:version="0.91 r13725"
   sodipodi:docname="logo.svg">
  <defs
     id="defs4" />
  <sodipodi:namedview
     id="base"
     pagecolor="#ffffff"
     bordercolor="#666666"
     borderopacity="1.0"
     inkscape:pageopacity="0.0"
     inkscape:pageshadow="2"
     inkscape:zoom="0.98994949"
     inkscape:cx="-169.25055"
     inkscape:cy="100.00425"
     inkscape:document-units="px"
     inkscape:current-layer="text4169"
     showgrid="false"
     fit-margin-top="0"
     fit-margin-left="0"
     fit-margin-right="0"
     fit-margin-bottom="0"
     inkscape:window-width="1366"
     inkscape:window-height="706"
     inkscape:window-x="-8"
     inkscape:window-y="-8"
     inkscape:window-maximized="1" />
  <metadata
     id="metadata7">
    <rdf:RDF>
      <cc:Work
         rdf:about="">
        <dc:format>image/svg+xml</dc:format>
        <dc:type
           rdf:resource="http://purl.org/dc/dcmitype/StillImage" />
        <dc:title></dc:title>
      </cc:Work>
    </rdf:RDF>
  </metadata>
  <g
     inkscape:label="Layer 1"
     inkscape:groupmode="layer"
     id="layer1"
     transform="translate(-78.772358,-433.12205)">
    <g
       style="font-style:normal;font-weight:normal;font-size:27.07004738px;line-height:125%;font-family:sans-serif;letter-spacing:0px;word-spacing:0px;fill:#000000;fill-opacity:1;stroke:none;stroke-width:11.05619335;stroke-linecap:butt;stroke-linejoin:miter;stroke-miterlimit:4;stroke-dasharray:none;stroke-opacity:1"
       id="text4142"
       transform="matrix(0.90447043,0,0,0.90447043,7.4811304,45.056464)">
      <g
         style="font-style:normal;font-weight:normal;font-size:38.52236938px;line-height:125%;font-family:sans-serif;letter-spacing:0px;word-spacing:0px;fill:#000000;fill-opacity:1;stroke:none;stroke-width:1px;stroke-linecap:butt;stroke-linejoin:miter;stroke-opacity:1"
         id="text4169"
         transform="matrix(0.95390077,0,0,0.95390077,3.6335855,19.779004)">
        <path
           d="m 93.382856,432.45116 0,-1.0025 q 0,-0.50976 0.186908,-0.73065 0.203901,-0.22089 0.526743,-0.22089 0.322843,0 0.509752,0.22089 0.2039,0.22089 0.2039,0.73065 l 0,3.95906 q 0,0.52674 -0.2039,0.74764 -0.186909,0.22088 -0.509752,0.22088 -0.288859,0 -0.492759,-0.20389 -0.18691,-0.2039 -0.220892,-0.66268 -0.08496,-1.4273 -1.546246,-2.53177 -1.971038,-1.51225 -4.485812,-1.51225 -1.648195,0 -3.109483,0.73063 -1.087469,0.52675 -1.733154,1.29138 -1.121453,1.32535 -1.78413,2.93956 -0.475767,1.18942 -0.475767,2.68469 l 0,2.49779 q 0,3.19444 2.310872,5.55628 2.310873,2.34486 5.36938,2.34486 1.835105,0 3.279401,-0.79861 1.461286,-0.79861 2.820623,-2.41282 0.288859,-0.35683 0.645685,-0.35683 0.305852,0 0.49276,0.18691 0.186909,0.18691 0.186909,0.47576 0,0.39082 -0.730643,1.18943 -1.393321,1.56323 -3.143467,2.36184 -1.733155,0.78162 -3.517285,0.78162 -1.546245,0 -3.143465,-0.5947 -1.223403,-0.45879 -2.022014,-1.07049 -0.79861,-0.6117 -1.971039,-2.05599 -1.155436,-1.46128 -1.580229,-2.68469 -0.424792,-1.2404 -0.424792,-2.71868 l 0,-2.90557 q 0,-2.10698 1.121452,-4.29891 1.138445,-2.20892 3.092492,-3.38135 1.971038,-1.18942 4.264919,-1.18942 3.534276,0 6.083033,2.41282 z"
           style="font-style:normal;font-variant:normal;font-weight:normal;font-stretch:normal;font-family:'Courier New';-inkscape-font-specification:'Courier New'"
           id="path4174"
           inkscape:connector-curvature="0" />
        <path
           d="m 115.94784,443.05399 q 0,3.26241 -2.34485,5.57328 -2.32787,2.31087 -5.62426,2.31087 -3.33037,0 -5.65824,-2.31087 -2.327858,-2.32786 -2.327858,-5.57328 0,-3.26241 2.327858,-5.57328 2.32787,-2.32787 5.65824,-2.32787 3.29639,0 5.62426,2.31088 2.34485,2.31087 2.34485,5.59027 z m -1.44428,0 q 0,-2.68469 -1.92008,-4.57077 -1.90307,-1.88608 -4.62174,-1.88608 -2.71867,0 -4.63873,1.90307 -1.90307,1.88608 -1.90307,4.55378 0,2.65071 1.90307,4.55378 1.92006,1.90307 4.63873,1.90307 2.71867,0 4.62174,-1.88608 1.92008,-1.90307 1.92008,-4.57077 z"
           style="font-style:normal;font-variant:normal;font-weight:normal;font-stretch:normal;font-family:'Courier New';-inkscape-font-specification:'Courier New'"
           id="path4176"
           inkscape:connector-curvature="0" />
        <path
           d="m 135.82815,429.05282 0,19.89729 1.90306,0 q 0.52675,0 0.74764,0.20391 0.2209,0.1869 0.2209,0.50975 0,0.30584 -0.2209,0.50975 -0.22089,0.2039 -0.74764,0.2039 l -3.34736,0 0,-2.83762 q -2.48079,3.39834 -6.30392,3.39834 -1.93706,0 -3.72119,-1.0195 -1.76713,-1.03649 -2.80363,-2.93956 -1.0195,-1.90307 -1.0195,-3.92509 0,-2.03901 1.0195,-3.92509 1.0365,-1.90307 2.80363,-2.93956 1.78413,-1.0365 3.73818,-1.0365 3.73817,0 6.28693,3.39835 l 0,-8.05407 -1.90307,0 q -0.52674,0 -0.74764,-0.20391 -0.22088,-0.20389 -0.22088,-0.52674 0,-0.30585 0.22088,-0.50975 0.2209,-0.2039 0.74764,-0.2039 l 3.34737,0 z m -1.4443,14.00117 q 0,-2.71868 -1.8351,-4.58776 -1.83511,-1.86909 -4.36688,-1.86909 -2.54875,0 -4.38385,1.86909 -1.8351,1.86908 -1.8351,4.58776 0,2.70169 1.8351,4.58776 1.8351,1.86909 4.38385,1.86909 2.53177,0 4.36688,-1.86909 1.8351,-1.88607 1.8351,-4.58776 z"
           style="font-style:normal;font-variant:normal;font-weight:normal;font-stretch:normal;font-family:'Courier New';-inkscape-font-specification:'Courier New'"
           id="path4178"
           inkscape:connector-curvature="0" />
        <path
           d="m 157.42461,443.35984 -14.5449,0 q 0.37381,2.76965 2.31087,4.46882 1.95405,1.68218 4.82564,1.68218 1.59723,0 3.34737,-0.52674 1.75015,-0.52674 2.85461,-1.39332 0.32284,-0.25488 0.56072,-0.25488 0.27187,0 0.47578,0.22089 0.20389,0.20391 0.20389,0.49276 0,0.28886 -0.27186,0.56073 -0.81561,0.84958 -2.90559,1.59722 -2.07299,0.73064 -4.26492,0.73064 -3.6702,0 -6.13401,-2.39583 -2.4468,-2.41282 -2.4468,-5.82815 0,-3.10948 2.29389,-5.3354 2.31086,-2.22592 5.7092,-2.22592 3.5003,0 5.7602,2.29389 2.25989,2.27688 2.22591,5.91311 z m -1.44429,-1.4443 q -0.4248,-2.36184 -2.24291,-3.84012 -1.80112,-1.47828 -4.29891,-1.47828 -2.49777,0 -4.29889,1.46129 -1.80113,1.46129 -2.24291,3.85711 l 13.08362,0 z"
           style="font-style:normal;font-variant:normal;font-weight:normal;font-stretch:normal;font-family:'Courier New';-inkscape-font-specification:'Courier New'"
           id="path4180"
           inkscape:connector-curvature="0" />
        <path
           d="m 176.84614,432.45116 0,-1.0025 q 0,-0.50976 0.18691,-0.73065 0.20389,-0.22089 0.52674,-0.22089 0.32284,0 0.50975,0.22089 0.2039,0.22089 0.2039,0.73065 l 0,3.95906 q 0,0.52674 -0.2039,0.74764 -0.18691,0.22088 -0.50975,0.22088 -0.28886,0 -0.49276,-0.20389 -0.18691,-0.2039 -0.22089,-0.66268 -0.0849,-1.4273 -1.54625,-2.53177 -1.97104,-1.51225 -4.48581,-1.51225 -1.6482,0 -3.10949,0.73063 -1.08746,0.52675 -1.73315,1.29138 -1.12145,1.32535 -1.78412,2.93956 -0.47578,1.18942 -0.47578,2.68469 l 0,2.49779 q 0,3.19444 2.31088,5.55628 2.31086,2.34486 5.36938,2.34486 1.8351,0 3.2794,-0.79861 1.46128,-0.79861 2.82062,-2.41282 0.28886,-0.35683 0.64568,-0.35683 0.30586,0 0.49276,0.18691 0.18691,0.18691 0.18691,0.47576 0,0.39082 -0.73064,1.18943 -1.39332,1.56323 -3.14346,2.36184 -1.73316,0.78162 -3.51729,0.78162 -1.54625,0 -3.14346,-0.5947 -1.22341,-0.45879 -2.02202,-1.07049 -0.79861,-0.6117 -1.97104,-2.05599 -1.15544,-1.46128 -1.58023,-2.68469 -0.42479,-1.2404 -0.42479,-2.71868 l 0,-2.90557 q 0,-2.10698 1.12146,-4.29891 1.13844,-2.20892 3.09248,-3.38135 1.97104,-1.18942 4.26492,-1.18942 3.53428,0 6.08304,2.41282 z"
           style="font-style:normal;font-variant:normal;font-weight:normal;font-stretch:normal;font-family:'Courier New';-inkscape-font-specification:'Courier New'"
           id="path4182"
           inkscape:connector-curvature="0" />
        <path
           d="m 195.53701,450.37742 0,-2.056 q -3.10948,2.61672 -6.64375,2.61672 -2.56575,0 -4.01005,-1.29137 -1.44429,-1.30836 -1.44429,-3.19443 0,-2.07299 1.90307,-3.61924 1.90307,-1.54625 5.55629,-1.54625 0.98552,0 2.14095,0.13594 1.15544,0.11894 2.49778,0.3908 l 0,-2.31087 q 0,-1.17243 -1.08746,-2.039 -1.08747,-0.86658 -3.26241,-0.86658 -1.66519,0 -4.67272,0.96853 -0.54373,0.16991 -0.69666,0.16991 -0.27187,0 -0.47577,-0.20389 -0.18691,-0.20391 -0.18691,-0.50976 0,-0.28885 0.16991,-0.45877 0.23789,-0.25488 1.92007,-0.69666 2.65071,-0.71366 4.01005,-0.71366 2.70168,0 4.21394,1.34235 1.51226,1.32535 1.51226,3.00753 l 0,9.44739 1.90308,0 q 0.52674,0 0.74762,0.20391 0.2209,0.1869 0.2209,0.50975 0,0.30584 -0.2209,0.50975 -0.22088,0.2039 -0.74762,0.2039 l -3.34738,0 z m 0,-7.10254 q -1.0025,-0.28885 -2.12395,-0.42479 -1.12146,-0.13593 -2.36186,-0.13593 -3.10947,0 -4.85963,1.34234 -1.32535,1.00252 -1.32535,2.39584 0,1.29137 1.00252,2.17493 1.01949,0.88357 2.95655,0.88357 1.8521,0 3.43232,-0.73064 1.59723,-0.74764 3.2794,-2.36185 l 0,-3.14347 z"
           style="font-style:normal;font-variant:normal;font-weight:normal;font-stretch:normal;font-family:'Courier New';-inkscape-font-specification:'Courier New'"
           id="path4184"
           inkscape:connector-curvature="0" />
        <path
           d="m 209.36827,435.66259 7.74822,0 q 0.50975,0 0.73064,0.20391 0.22089,0.2039 0.22089,0.52674 0,0.30585 -0.22089,0.50975 -0.22089,0.2039 -0.73064,0.2039 l -7.74822,0 0,9.49836 q 0,1.2404 0.98552,2.07299 1.00251,0.8326 2.92257,0.8326 1.44429,0 3.12648,-0.42479 1.68217,-0.44179 2.61672,-0.98552 0.33983,-0.2209 0.56072,-0.2209 0.27188,0 0.47577,0.2209 0.2039,0.2039 0.2039,0.49275 0,0.25488 -0.22089,0.47578 -0.54374,0.56072 -2.65071,1.2234 -2.08998,0.64568 -4.01004,0.64568 -2.49778,0 -3.97606,-1.17242 -1.47828,-1.17244 -1.47828,-3.16047 l 0,-9.49836 -2.63371,0 q -0.50975,0 -0.73065,-0.2039 -0.22088,-0.2039 -0.22088,-0.52675 0,-0.30584 0.22088,-0.50974 0.2209,-0.20391 0.73065,-0.20391 l 2.63371,0 0,-4.21393 q 0,-0.50976 0.2039,-0.73065 0.20391,-0.22089 0.50975,-0.22089 0.32285,0 0.52674,0.22089 0.20391,0.22089 0.20391,0.73065 l 0,4.21393 z"
           style="font-style:normal;font-variant:normal;font-weight:normal;font-stretch:normal;font-family:'Courier New';-inkscape-font-specification:'Courier New'"
           id="path4186"
           inkscape:connector-curvature="0" />
        <path
           d="m 239.12075,437.10689 0,-0.47577 q 0,-0.52674 0.2039,-0.74763 0.20391,-0.2209 0.50975,-0.2209 0.32285,0 0.52675,0.2209 0.2039,0.22089 0.2039,0.74763 l 0,3.22843 q -0.017,0.52674 -0.22089,0.74763 -0.18691,0.2209 -0.50976,0.2209 -0.28885,0 -0.49276,-0.18691 -0.18691,-0.20391 -0.22089,-0.66268 -0.10194,-1.20641 -1.59722,-2.29388 -1.47828,-1.08747 -3.99305,-1.08747 -3.17745,0 -4.82564,1.98803 -1.6482,1.98803 -1.6482,4.55377 0,2.76965 1.81811,4.57078 1.81812,1.80112 4.70671,1.80112 1.66518,0 3.38135,-0.6117 1.73315,-0.6117 3.12647,-1.97104 0.35683,-0.33984 0.62869,-0.33984 0.28887,0 0.47577,0.20391 0.2039,0.18691 0.2039,0.47576 0,0.73065 -1.71616,1.8521 -2.76965,1.81811 -6.16799,1.81811 -3.44932,0 -5.67523,-2.19193 -2.20893,-2.20892 -2.20893,-5.59027 0,-3.44932 2.2599,-5.7262 2.2769,-2.2769 5.72621,-2.2769 3.2794,0 5.50531,1.95405 z"
           style="font-style:normal;font-variant:normal;font-weight:normal;font-stretch:normal;font-family:'Courier New';-inkscape-font-specification:'Courier New'"
           id="path4188"
           inkscape:connector-curvature="0" />
        <path
           d="m 249.33277,429.05282 0,8.78471 q 1.35933,-1.47828 2.59974,-2.07299 1.25738,-0.6117 2.80363,-0.6117 1.66518,0 2.82061,0.59471 1.17244,0.57772 1.95405,1.80113 0.78162,1.20641 0.78162,2.54875 l 0,8.85268 1.59722,0 q 0.52675,0 0.73065,0.20391 0.22089,0.1869 0.22089,0.50975 0,0.30584 -0.22089,0.50975 -0.2039,0.2039 -0.73065,0.2039 l -4.63873,0 q -0.52674,0 -0.74764,-0.2039 -0.22089,-0.20391 -0.22089,-0.50975 0,-0.32285 0.22089,-0.50975 0.2209,-0.20391 0.74764,-0.20391 l 1.59721,0 0,-8.75072 q 0,-1.54625 -1.12145,-2.58275 -1.10445,-1.03649 -3.09248,-1.03649 -1.56324,0 -2.6677,0.76463 -0.79861,0.54373 -2.63372,2.56574 l 0,9.03959 1.61421,0 q 0.50975,0 0.73065,0.20391 0.22089,0.1869 0.22089,0.50975 0,0.30584 -0.22089,0.50975 -0.2209,0.2039 -0.73065,0.2039 l -4.65572,0 q -0.50975,0 -0.73065,-0.2039 -0.22089,-0.20391 -0.22089,-0.50975 0,-0.32285 0.22089,-0.50975 0.2209,-0.20391 0.73065,-0.20391 l 1.61421,0 0,-18.45299 -1.92007,0 q -0.50975,0 -0.73064,-0.20391 -0.22089,-0.20389 -0.22089,-0.52674 0,-0.30585 0.22089,-0.50975 0.22089,-0.2039 0.73064,-0.2039 l 3.34737,0 z"
           style="font-style:normal;font-variant:normal;font-weight:normal;font-stretch:normal;font-family:'Courier New';-inkscape-font-specification:'Courier New'"
           id="path4190"
           inkscape:connector-curvature="0" />
      </g>
    </g>
  </g>
</svg>
